<svg width="{93.000000}" height="{31.000000}" viewBox="0 0 93 31" fill="none" xmlns="http://www.w3.org/2000/svg" xmlnsxlink="http://www.w3.org/1999/xlink">
  <desc>
    Created with Pixso.
  </desc>
  <defs />
  <path id="oxo" d="M25.66 4.59Q26.95 6.21 27.79 8.05Q29.32 11.4 29.32 15.45Q29.32 19.88 27.55 23.42L27.55 23.42Q26.77 24.98 25.66 26.36C23.22 29.37 19.51 30.87 14.53 30.87Q8.46 30.87 4.9 27.88Q4.09 27.2 3.41 26.36Q2.3 24.98 1.52 23.42L1.52 23.42Q-0.25 19.88 -0.25 15.45Q-0.25 11.4 1.28 8.05Q2.11 6.21 3.41 4.59Q4.15 3.66 5.05 2.92Q8.58 0 14.53 0Q20.48 0 24.02 2.92Q24.92 3.66 25.66 4.59ZM92.82 15.45C92.82 11.27 91.6 7.65 89.16 4.59C86.72 1.53 83.01 0 78.04 0Q72.09 0 68.55 2.92Q67.65 3.66 66.91 4.59Q65.62 6.21 64.78 8.05Q63.25 11.4 63.25 15.45Q63.25 19.88 65.02 23.42Q65.8 24.98 66.91 26.36C69.36 29.37 73.06 30.87 78.04 30.87C83.01 30.87 86.72 29.37 89.16 26.36C91.6 23.33 92.82 19.69 92.82 15.45ZM60.54 29.86L51.12 29.86L46.13 21.18L41.11 29.86L31.92 29.86L41.8 15.21L32.35 0.98L41.61 0.98L46.44 9.37L51.17 0.98L60.17 0.98L50.67 15.07L60.54 29.86ZM14.51 6.39Q12.39 6.39 10.89 7.35Q10.04 7.9 9.38 8.76Q7.61 11.09 7.61 15.45Q7.61 19.8 9.38 22.16Q10.04 23.02 10.89 23.56Q12.39 24.53 14.51 24.53Q16.64 24.53 18.14 23.55Q18.97 23.01 19.6 22.16Q21.38 19.8 21.38 15.45Q21.38 11.09 19.6 8.76Q18.97 7.91 18.14 7.37Q16.64 6.39 14.51 6.39ZM72.89 8.76C74.09 7.18 75.8 6.39 78.01 6.39Q80.14 6.39 81.64 7.37Q82.47 7.91 83.11 8.76C84.29 10.31 84.89 12.54 84.89 15.45C84.89 18.35 84.29 20.59 83.11 22.16Q82.47 23.01 81.64 23.55Q80.14 24.53 78.01 24.53C75.8 24.53 74.09 23.74 72.89 22.16C71.7 20.59 71.11 18.35 71.11 15.45C71.11 12.54 71.7 10.31 72.89 8.76Z" fill="#FFFFFF" fillopacity="{1.000000}" fillrule="evenodd" />
</svg>
